<?xml version="1.0" standalone="no"?>
<!DOCTYPE svg PUBLIC "-//W3C//DTD SVG 20010904//EN"
 "http://www.w3.org/TR/2001/REC-SVG-20010904/DTD/svg10.dtd">
<svg version="1.0" xmlns="http://www.w3.org/2000/svg"
 width="215.000000pt" height="269.000000pt" viewBox="0 0 215.000000 269.000000"
 preserveAspectRatio="xMidYMid meet">
<metadata>
Created by potrace 1.10, written by Peter Selinger 2001-2011
</metadata>
<g transform="translate(0.000000,269.000000) scale(0.100000,-0.100000)"
fill="#ffffff" stroke="none">
<path d="M1757 2670 c-276 -50 -587 -321 -918 -800 l-45 -65 -55 2 c-30 1
-101 -2 -159 -7 -339 -31 -553 -174 -568 -380 -5 -77 8 -126 45 -171 43 -50
78 -63 173 -63 90 0 143 18 184 63 24 26 33 116 17 161 -10 29 -8 35 18 60 38
38 171 78 171 51 0 -5 -29 -67 -64 -138 -258 -515 -373 -956 -305 -1165 22
-67 79 -130 149 -165 56 -28 83 -34 196 -44 72 -7 139 -9 148 -6 16 6 15 10
-10 40 -15 17 -33 47 -41 66 -21 48 -17 204 7 347 33 194 67 319 187 684 15
46 98 250 134 327 10 24 19 47 19 52 0 19 38 21 106 7 122 -26 224 -64 224
-82 0 -12 -32 -173 -50 -254 -4 -19 -17 -80 -29 -135 -11 -55 -29 -140 -40
-190 -11 -49 -27 -126 -36 -170 -10 -44 -26 -120 -37 -170 -10 -49 -22 -109
-25 -133 l-6 -42 256 0 c235 0 256 1 261 18 2 9 16 73 31 142 14 69 30 143 35
165 5 22 19 85 30 140 20 96 26 124 50 228 5 26 19 91 30 145 11 53 29 140 40
192 12 52 25 113 29 135 16 72 60 278 81 375 11 52 25 115 30 140 5 25 30 142
55 260 68 317 70 331 54 341 -56 36 -267 58 -372 39z m-227 -486 c-23 -111
-65 -303 -81 -379 -6 -27 -14 -66 -18 -85 -8 -42 -20 -43 -136 -10 -44 12 -93
25 -108 27 -24 5 -28 9 -22 30 7 28 98 189 157 277 102 151 220 285 226 255 1
-9 -6 -61 -18 -115z"/>
</g>
</svg>
