<?xml version="1.0" standalone="no"?>
<!DOCTYPE svg PUBLIC "-//W3C//DTD SVG 20010904//EN"
 "http://www.w3.org/TR/2001/REC-SVG-20010904/DTD/svg10.dtd">
<svg version="1.0" xmlns="http://www.w3.org/2000/svg"
 width="300.000000pt" height="128.000000pt" viewBox="0 0 300.000000 128.000000"
 preserveAspectRatio="xMidYMid meet">
<metadata>
Created by potrace 1.10, written by Peter Selinger 2001-2011
</metadata>
<g transform="translate(0.000000,128.000000) scale(0.100000,-0.100000)"
fill="#00356b" stroke="none">
<path d="M833 1270 c-120 -25 -260 -142 -402 -336 l-51 -71 -83 -6 c-45 -4
-105 -14 -133 -22 -63 -18 -138 -83 -154 -131 -31 -92 49 -166 144 -134 43 14
60 41 53 86 -6 38 13 60 62 70 l33 7 -35 -69 c-59 -118 -125 -295 -143 -383
-37 -186 8 -263 164 -277 l71 -7 -20 39 c-17 33 -19 50 -14 109 10 105 31 196
79 340 59 177 91 245 112 245 10 0 44 -7 76 -16 42 -12 58 -21 58 -34 0 -9
-22 -122 -50 -251 -27 -129 -50 -240 -50 -246 0 -10 30 -13 119 -13 105 0 120
2 125 18 3 9 21 91 40 182 19 91 69 324 110 518 42 194 76 354 76 356 0 2 -12
8 -27 14 -42 16 -113 22 -160 12z m-123 -320 c-16 -79 -32 -146 -35 -148 -5
-5 -114 24 -122 32 -9 8 88 163 135 216 24 28 46 49 48 47 3 -2 -9 -69 -26
-147z"/>
<path d="M1210 1132 c-63 -8 -118 -20 -122 -25 -3 -6 -14 -50 -23 -99 -16 -80
-19 -88 -41 -88 -28 0 -30 -3 -39 -57 -6 -40 -5 -43 15 -43 26 0 29 22 -30
-260 -38 -184 -41 -210 -31 -258 6 -29 20 -66 31 -81 58 -82 205 -80 321 5
l46 33 24 -25 c47 -50 96 -68 189 -68 76 -1 91 3 138 29 65 36 128 103 164
176 27 55 58 161 58 197 0 24 4 27 47 36 27 6 31 5 27 -11 -23 -103 -84 -399
-84 -410 0 -10 26 -13 120 -13 l119 0 10 38 c5 20 28 127 51 237 43 209 70
282 110 302 28 14 50 2 50 -28 0 -11 -23 -126 -50 -257 -28 -130 -53 -249 -56
-265 l-6 -27 121 0 c66 0 122 3 124 7 3 5 26 109 52 233 61 290 82 340 144
340 31 0 34 -46 11 -156 -12 -54 -28 -132 -37 -172 -33 -157 27 -262 150 -262
94 0 159 54 176 146 5 27 8 50 7 52 -2 1 -17 -5 -34 -14 -41 -20 -72 -5 -72
34 0 15 14 83 30 152 39 161 46 227 30 276 -25 78 -78 114 -170 114 -63 0 -99
-13 -157 -56 l-32 -24 -35 37 c-33 36 -37 38 -109 41 -56 3 -84 0 -108 -12
-39 -20 -39 -20 -39 -1 0 13 -20 15 -124 15 l-123 0 -12 -62 c-25 -130 -28
-136 -69 -148 -48 -13 -52 -13 -52 5 0 7 -5 37 -11 66 -14 66 -65 124 -123
140 -56 15 -151 6 -214 -21 -64 -28 -156 -122 -194 -201 -35 -73 -68 -192 -68
-249 0 -53 -20 -87 -63 -105 -42 -18 -67 -9 -67 25 0 15 20 121 45 236 25 114
45 209 45 211 0 2 20 3 44 3 41 0 44 2 50 31 12 62 9 69 -29 69 -42 0 -43 6
-15 134 23 104 22 96 13 95 -5 -1 -60 -8 -123 -17z m548 -355 c2 -10 -4 -27
-13 -37 -26 -29 -31 -92 -9 -129 16 -27 17 -35 5 -83 -30 -116 -86 -198 -135
-198 -34 0 -46 26 -46 98 0 112 58 280 118 345 30 32 75 34 80 4z"/>
</g>
</svg>
